# xmcd
#
# Track frame offsets:
#	150
#	8897
#	19797
#	30610
#	41552
#	50782
#	59862
#	70310
#	81762
#	89780
#	104210
#	114900
#	125885
#	139662
#	148660
#	158655
#	168700
#	177600
#	186577
#	197357
#	207037
#	216445
#	226030
#	240092
#	250767
#	258867
#	269610
#	278382
#	289312
#
# Disc length: 4000 seconds
#
# Revision: 1
# Processed by: cddbd v1.5.2PL0 Copyright (c) Steve Scherf et al.
# Submitted via: audiograbber 1.83.01
#
DISCID=bb0f9e1d
DTITLE=The Easy Riders - Marianne Vol. 1
DYEAR=1900
DGENRE=Oldies
TTITLE0=Whatcha Gonna Do?
TTITLE1=So True Blues
TTITLE2=Marianne
TTITLE3=U.S. Adam
TTITLE4=Rollin' Home
TTITLE5=Everybody Loves Saturday Night
TTITLE6=Lonesome Rider
TTITLE7=Goodbye Chiquita
TTITLE8=Champagne Wine
TTITLE9=South Coast
TTITLE10=Hot Crawfish
TTITLE11=Red Sundown
TTITLE12=Yermo's Nightmare And Yermo Red
TTITLE13=The Sky Is High
TTITLE14=Send For The Captain
TTITLE15=Don't Hurry Worry Me
TTITLE16=True Love And Tender Care
TTITLE17=Tina
TTITLE18=The Sweet Sugar Cane
TTITLE19=I Won't Tell (& Roberta Lee)
TTITLE20=Strollin' Blues (& Roberta Lee)
TTITLE21=Tina
TTITLE22=South Coast
TTITLE23=Fare Thee Well
TTITLE24=The Weary, Travelin' Blues
TTITLE25=The Blues Ain't Nothin'
TTITLE26=Times
TTITLE27=Man About Town
TTITLE28=Shorty Joe
EXTD=
EXTT0=
EXTT1=
EXTT2=
EXTT3=
EXTT4=
EXTT5=
EXTT6=
EXTT7=
EXTT8=
EXTT9=
EXTT10=
EXTT11=
EXTT12=
EXTT13=
EXTT14=
EXTT15=
EXTT16=
EXTT17=
EXTT18=
EXTT19=
EXTT20=
EXTT21=
EXTT22=
EXTT23=
EXTT24=
EXTT25=
EXTT26=
EXTT27=
EXTT28=
PLAYORDER=
